<svg xmlns="http://www.w3.org/2000/svg" xmlns:xlink="http://www.w3.org/1999/xlink" width="167.002" height="124.766" viewBox="0 0 167.002 124.766">
  <defs>
    <clipPath id="clip-path">
      <rect id="Rectangle_380" data-name="Rectangle 380" width="167.002" height="124.766" fill="#fff"/>
    </clipPath>
  </defs>
  <g id="Groupe_796" data-name="Groupe 796" clip-path="url(#clip-path)">
    <path id="Tracé_17653" data-name="Tracé 17653" d="M254.192,1186.456h-4.531v1.382h4.174c.134,0,.208.074.208.223v.178c0,.149-.074.223-.208.223h-4.174v1.307h4.531c.134,0,.208.074.208.223v.178c0,.149-.074.223-.208.223h-4.947c-.134,0-.208-.074-.208-.223v-4.159c0-.148.074-.223.208-.223h4.947c.134,0,.208.074.208.223v.178c0,.193-.059.267-.208.267" transform="translate(-223.826 -1065.746)" fill="#fff"/>
    <path id="Tracé_17654" data-name="Tracé 17654" d="M319.36,1185.95c.134,0,.208.074.208.223v4.159c0,.149-.074.223-.208.223h-.208a.49.49,0,0,1-.327-.119l-4.308-3.654v3.535c0,.149-.074.223-.208.223H314.1c-.134,0-.208-.074-.208-.223v-4.159c0-.149.074-.223.208-.223h.208a.462.462,0,0,1,.327.119l4.308,3.654v-3.535c0-.149.074-.223.208-.223Z" transform="translate(-282.116 -1065.878)" fill="#fff"/>
    <path id="Tracé_17655" data-name="Tracé 17655" d="M387.721,1186.456H383.19v1.382h4.174c.134,0,.208.074.208.223v.178c0,.149-.074.223-.208.223H383.19v1.307h4.531c.134,0,.208.074.208.223v.178c0,.149-.074.223-.208.223h-4.947c-.134,0-.208-.074-.208-.223v-4.159c0-.148.074-.223.208-.223h4.947c.134,0,.208.074.208.223v.178c0,.193-.074.267-.208.267" transform="translate(-343.837 -1065.746)" fill="#fff"/>
    <path id="Tracé_17656" data-name="Tracé 17656" d="M448.032,1186.72v1.9h3.461a1.115,1.115,0,0,0,.743-.238.95.95,0,0,0,.282-.743c0-.609-.342-.921-1.01-.921Zm5.08,3.7c.074.074.1.134.089.193s-.074.089-.178.089H452.7a.306.306,0,0,1-.252-.1l-1.426-1.382h-2.971v1.248c0,.149-.074.223-.208.223h-.208c-.134,0-.208-.074-.208-.223V1186.3c0-.148.074-.223.208-.223h3.877a2.132,2.132,0,0,1,.787.134,1.145,1.145,0,0,1,.52.371,1.468,1.468,0,0,1,.253.505,1.788,1.788,0,0,1,.074.564,1.991,1.991,0,0,1-.059.52,1.832,1.832,0,0,1-.208.461,1.268,1.268,0,0,1-.416.371,1.621,1.621,0,0,1-.624.193Z" transform="translate(-402.128 -1066.009)" fill="#fff"/>
    <path id="Tracé_17657" data-name="Tracé 17657" d="M520.525,1187.65v1.753a.217.217,0,0,1-.1.193,2.921,2.921,0,0,1-.936.357,7.166,7.166,0,0,1-1.649.163,4.263,4.263,0,0,1-2.421-.55,2.514,2.514,0,0,1,0-3.654,4.22,4.22,0,0,1,2.421-.564,6.93,6.93,0,0,1,1.634.163,2.923,2.923,0,0,1,.936.357.3.3,0,0,1,.1.149.285.285,0,0,1-.059.178l-.119.148a.206.206,0,0,1-.282.045,5.372,5.372,0,0,0-2.2-.416,3.606,3.606,0,0,0-1.991.416,1.832,1.832,0,0,0,0,2.674,3.479,3.479,0,0,0,1.991.416,5.409,5.409,0,0,0,2.094-.356v-1.114h-1.53c-.134,0-.208-.074-.208-.223v-.134c0-.148.074-.223.208-.223h1.9c.134-.015.208.074.208.223" transform="translate(-462.53 -1065.35)" fill="#fff"/>
    <path id="Tracé_17658" data-name="Tracé 17658" d="M585.416,1190.833c-.134,0-.208-.074-.208-.223v-4.159c0-.148.074-.223.208-.223h.208c.134,0,.208.074.208.223v4.159c0,.148-.074.223-.208.223Z" transform="translate(-525.965 -1066.141)" fill="#fff"/>
    <path id="Tracé_17659" data-name="Tracé 17659" d="M609.144,1186.456h-4.531v1.382h4.174c.134,0,.208.074.208.223v.178c0,.149-.074.223-.208.223h-4.174v1.307h4.531c.134,0,.208.074.208.223v.178c0,.149-.074.223-.208.223H604.2c-.134,0-.208-.074-.208-.223v-4.159c0-.148.074-.223.208-.223h4.947c.134,0,.208.074.208.223v.178c0,.193-.074.267-.208.267" transform="translate(-542.844 -1065.746)" fill="#fff"/>
    <path id="Tracé_17660" data-name="Tracé 17660" d="M668.371,1186.742a.354.354,0,0,0,.074.208.543.543,0,0,0,.223.164,2.127,2.127,0,0,0,.327.119,3.707,3.707,0,0,0,.431.1c.178.03.327.059.475.074s.312.045.52.074.416.045.535.074.3.045.505.074a4.138,4.138,0,0,1,.505.1,4.386,4.386,0,0,1,.431.134,1.717,1.717,0,0,1,.4.163,3.435,3.435,0,0,1,.282.208.726.726,0,0,1,.208.267.872.872,0,0,1,.059.341,1.114,1.114,0,0,1-.713,1.07,5.313,5.313,0,0,1-2.154.327h-.074a6.833,6.833,0,0,1-1.649-.178,3.445,3.445,0,0,1-.98-.357.23.23,0,0,1-.1-.149.235.235,0,0,1,.074-.178l.119-.134a.208.208,0,0,1,.282-.044,4.114,4.114,0,0,0,.906.282,6.137,6.137,0,0,0,1.337.148h.074a5.165,5.165,0,0,0,1.664-.193c.357-.134.535-.312.535-.52a.463.463,0,0,0-.163-.327,1.159,1.159,0,0,0-.49-.223,5.316,5.316,0,0,0-.669-.134c-.223-.03-.5-.074-.832-.1h-.074c-.208-.03-.4-.045-.565-.074s-.342-.06-.55-.089c-.193-.045-.371-.089-.52-.134a2.18,2.18,0,0,1-.431-.178,1.856,1.856,0,0,1-.356-.223,1.109,1.109,0,0,1-.223-.3.805.805,0,0,1-.089-.372,1.016,1.016,0,0,1,.639-.965,4.739,4.739,0,0,1,1.976-.312h.148a6.085,6.085,0,0,1,1.56.178,3.41,3.41,0,0,1,.936.356.189.189,0,0,1,.03.327l-.119.134a.224.224,0,0,1-.3.045,4.972,4.972,0,0,0-2.124-.431H670.3c-1.263-.015-1.931.208-1.931.639" transform="translate(-600.081 -1065.481)" fill="#fff"/>
    <path id="Tracé_17661" data-name="Tracé 17661" d="M859.4,1186.742a.354.354,0,0,0,.074.208.543.543,0,0,0,.223.164,2.128,2.128,0,0,0,.327.119,3.707,3.707,0,0,0,.431.1c.178.03.327.059.475.074s.312.045.52.074.416.045.535.074.3.045.505.074a4.143,4.143,0,0,1,.505.1,4.385,4.385,0,0,1,.431.134,1.713,1.713,0,0,1,.4.163,3.435,3.435,0,0,1,.282.208.725.725,0,0,1,.208.267.871.871,0,0,1,.06.341,1.114,1.114,0,0,1-.713,1.07,5.312,5.312,0,0,1-2.154.327h-.074a6.62,6.62,0,0,1-1.634-.178,3.445,3.445,0,0,1-.98-.357.23.23,0,0,1-.1-.149.235.235,0,0,1,.074-.178l.119-.134a.208.208,0,0,1,.282-.044,4.114,4.114,0,0,0,.906.282,6.135,6.135,0,0,0,1.337.148h.074a5.166,5.166,0,0,0,1.664-.193c.357-.134.535-.312.535-.52a.463.463,0,0,0-.163-.327,1.463,1.463,0,0,0-.505-.223,5.308,5.308,0,0,0-.668-.134c-.223-.03-.505-.074-.832-.1h-.074c-.208-.03-.4-.045-.565-.074s-.342-.06-.55-.089c-.193-.045-.371-.089-.52-.134a2.181,2.181,0,0,1-.431-.178,1.855,1.855,0,0,1-.357-.223,1.112,1.112,0,0,1-.223-.3.806.806,0,0,1-.089-.372,1.016,1.016,0,0,1,.639-.965,4.738,4.738,0,0,1,1.976-.312h.149a6.085,6.085,0,0,1,1.56.178,3.781,3.781,0,0,1,.951.356.189.189,0,0,1,.03.327l-.119.134a.224.224,0,0,1-.3.045,4.973,4.973,0,0,0-2.124-.431h-.149c-1.292-.015-1.946.208-1.946.639" transform="translate(-771.789 -1065.481)" fill="#fff"/>
    <path id="Tracé_17662" data-name="Tracé 17662" d="M927.685,1185.95a.18.18,0,0,1,.178.089.194.194,0,0,1-.074.193l-2.54,2.54v1.575c0,.149-.074.223-.208.223h-.208c-.134,0-.208-.074-.208-.223v-1.56l-2.54-2.555c-.074-.074-.1-.149-.074-.193s.074-.089.178-.089h.371a.358.358,0,0,1,.267.1l2.095,2.124,2.124-2.139a.358.358,0,0,1,.267-.1h.371Z" transform="translate(-828.661 -1065.878)" fill="#fff"/>
    <path id="Tracé_17663" data-name="Tracé 17663" d="M996.1,1185.95c.134,0,.208.074.208.223v4.159c0,.149-.074.223-.208.223h-.208a.49.49,0,0,1-.327-.119l-4.308-3.654v3.535c0,.149-.074.223-.208.223h-.208c-.134,0-.208-.074-.208-.223v-4.159c0-.149.074-.223.208-.223h.208a.462.462,0,0,1,.327.119l4.308,3.654v-3.535c0-.149.074-.223.208-.223Z" transform="translate(-890.349 -1065.878)" fill="#fff"/>
    <path id="Tracé_17664" data-name="Tracé 17664" d="M1064.464,1186.456h-4.531v1.382h4.174c.134,0,.208.074.208.223v.178c0,.149-.074.223-.208.223h-4.174v1.307h4.531c.134,0,.208.074.208.223v.178c0,.149-.074.223-.208.223h-4.947c-.134,0-.208-.074-.208-.223v-4.159c0-.148.074-.223.208-.223h4.947c.134,0,.208.074.208.223v.178c0,.193-.074.267-.208.267" transform="translate(-952.07 -1065.746)" fill="#fff"/>
    <path id="Tracé_17665" data-name="Tracé 17665" d="M1124.775,1186.72v1.9h3.461a1.025,1.025,0,0,0,.728-.238.95.95,0,0,0,.282-.743c0-.609-.342-.921-1.01-.921Zm5.08,3.7c.074.074.1.134.089.193s-.074.089-.178.089h-.327a.306.306,0,0,1-.252-.1l-1.426-1.382h-2.971v1.248c0,.149-.074.223-.208.223h-.208c-.134,0-.208-.074-.208-.223V1186.3c0-.148.074-.223.208-.223h3.877a2.132,2.132,0,0,1,.787.134,1.1,1.1,0,0,1,.505.371,1.463,1.463,0,0,1,.253.505,1.787,1.787,0,0,1,.074.564,2,2,0,0,1-.059.52,1.828,1.828,0,0,1-.208.461,1.134,1.134,0,0,1-.416.371,1.622,1.622,0,0,1-.624.193Z" transform="translate(-1010.362 -1066.009)" fill="#fff"/>
    <path id="Tracé_17666" data-name="Tracé 17666" d="M1197.267,1187.65v1.753a.19.19,0,0,1-.1.193,2.921,2.921,0,0,1-.936.357,7.165,7.165,0,0,1-1.649.163,4.262,4.262,0,0,1-2.421-.55,2.514,2.514,0,0,1,0-3.654,4.252,4.252,0,0,1,2.421-.564,7.159,7.159,0,0,1,1.649.163,2.924,2.924,0,0,1,.936.357.3.3,0,0,1,.1.149.285.285,0,0,1-.059.178l-.119.148a.206.206,0,0,1-.282.045,5.322,5.322,0,0,0-2.2-.416,3.607,3.607,0,0,0-1.991.416,1.832,1.832,0,0,0,0,2.674,3.512,3.512,0,0,0,1.991.416,5.409,5.409,0,0,0,2.094-.356v-1.114h-1.53c-.134,0-.208-.074-.208-.223v-.134c0-.148.074-.223.208-.223h1.916c.119-.015.178.074.178.223" transform="translate(-1070.762 -1065.35)" fill="#fff"/>
    <path id="Tracé_17667" data-name="Tracé 17667" d="M1262.158,1190.833c-.134,0-.208-.074-.208-.223v-4.159c0-.148.074-.223.208-.223h.208c.134,0,.208.074.208.223v4.159c0,.148-.074.223-.208.223Z" transform="translate(-1134.197 -1066.141)" fill="#fff"/>
    <path id="Tracé_17668" data-name="Tracé 17668" d="M1285.887,1186.456h-4.531v1.382h4.174c.134,0,.208.074.208.223v.178c0,.149-.074.223-.208.223h-4.174v1.307h4.531c.134,0,.208.074.208.223v.178c0,.149-.074.223-.208.223h-4.947c-.134,0-.208-.074-.208-.223v-4.159c0-.148.074-.223.208-.223h4.947c.134,0,.208.074.208.223v.178c0,.193-.074.267-.208.267" transform="translate(-1151.078 -1065.746)" fill="#fff"/>
    <path id="Tracé_17669" data-name="Tracé 17669" d="M1345.245,1186.742a.354.354,0,0,0,.074.208.544.544,0,0,0,.223.164,2.116,2.116,0,0,0,.327.119,3.71,3.71,0,0,0,.431.1c.178.03.327.059.475.074s.312.045.535.074.416.045.535.074.3.045.505.074a4.857,4.857,0,0,1,.505.1,4.385,4.385,0,0,1,.431.134,1.71,1.71,0,0,1,.4.163,3.448,3.448,0,0,1,.282.208.726.726,0,0,1,.208.267.871.871,0,0,1,.059.341,1.114,1.114,0,0,1-.713,1.07,5.313,5.313,0,0,1-2.154.327h-.074a6.833,6.833,0,0,1-1.649-.178,3.445,3.445,0,0,1-.98-.357.23.23,0,0,1-.1-.149.235.235,0,0,1,.074-.178l.134-.134a.208.208,0,0,1,.282-.044,4.115,4.115,0,0,0,.906.282,6.17,6.17,0,0,0,1.352.148h.074a5.106,5.106,0,0,0,1.664-.193c.357-.134.535-.312.535-.52a.463.463,0,0,0-.163-.327,1.464,1.464,0,0,0-.505-.223,5.309,5.309,0,0,0-.668-.134c-.223-.03-.505-.074-.832-.1h-.074c-.208-.03-.4-.045-.565-.074s-.342-.06-.55-.089c-.193-.045-.371-.089-.52-.134a2.623,2.623,0,0,1-.431-.178,1.85,1.85,0,0,1-.356-.223,1.109,1.109,0,0,1-.223-.3.807.807,0,0,1-.089-.372,1.016,1.016,0,0,1,.639-.965,4.739,4.739,0,0,1,1.976-.312h.149a6.086,6.086,0,0,1,1.56.178,3.78,3.78,0,0,1,.951.356.189.189,0,0,1,.03.327l-.119.134a.227.227,0,0,1-.3.045,4.973,4.973,0,0,0-2.124-.431h-.149c-1.307-.015-1.976.208-1.976.639" transform="translate(-1208.446 -1065.481)" fill="#fff"/>
    <path id="Tracé_17670" data-name="Tracé 17670" d="M769.75,1190.246l-.4-.3a3.026,3.026,0,0,1-1.664.431c-1.307,0-2.288-.639-2.288-1.5a1.341,1.341,0,0,1,.921-1.2,1.044,1.044,0,0,1-.386-.8c0-.728.683-1.233,1.708-1.233a2.1,2.1,0,0,1,2.005,1.174l-.639.267a1.374,1.374,0,0,0-1.352-.832c-.594,0-.966.223-.966.609,0,.342.327.55.847.966l1.753,1.307a1.78,1.78,0,0,0,.282-.98h.713a2.334,2.334,0,0,1-.461,1.382l.98.728H769.75Zm-.936-.713-1.99-1.471-.074-.059a.876.876,0,0,0-.564.8c0,.639.728.965,1.56.965a2.15,2.15,0,0,0,1.07-.238" transform="translate(-687.913 -1065.614)" fill="#fff"/>
    <path id="Tracé_17671" data-name="Tracé 17671" d="M0,826.712a.906.906,0,0,1,.234-.633.79.79,0,0,1,.609-.258H14.948a7.084,7.084,0,0,1,2.881.587A7.332,7.332,0,0,1,20.15,828a7.854,7.854,0,0,1,1.569,2.344,7.37,7.37,0,0,1,0,5.763A7.385,7.385,0,0,1,17.83,840a7.084,7.084,0,0,1-2.881.587H7.123a.807.807,0,0,1-.844-.844v-1.452a.807.807,0,0,1,.844-.845h7.262a4.553,4.553,0,0,0,1.711-.327,4.6,4.6,0,0,0,1.428-.89,4.111,4.111,0,0,0,.961-1.335,3.976,3.976,0,0,0,.351-1.664,3.82,3.82,0,0,0-.351-1.64,4.2,4.2,0,0,0-.961-1.312,4.675,4.675,0,0,0-3.139-1.218H3.609v20.1a.788.788,0,0,1-.258.609.906.906,0,0,1-.633.234H.843a.821.821,0,0,1-.609-.234A.818.818,0,0,1,0,849.158Z" transform="translate(0 -742.221)" fill="#fff"/>
    <path id="Tracé_17672" data-name="Tracé 17672" d="M258.008,849.252a1.986,1.986,0,0,1,.093.327c0,.282-.157.422-.468.422h-2.625a.6.6,0,0,1-.562-.375l-2.671-5.576H240.53a.289.289,0,0,1-.327-.327.518.518,0,0,1,.046-.234l1.031-2.062a.693.693,0,0,1,.7-.468h8.295l-5.717-12.324-10.215,20.993a.6.6,0,0,1-.563.375h-2.342q-.469,0-.468-.422a1.836,1.836,0,0,1,.093-.327l11.105-22.539a1.762,1.762,0,0,1,.539-.633,1.221,1.221,0,0,1,.726-.258h2.2a1.224,1.224,0,0,1,.726.258,1.777,1.777,0,0,1,.539.633Z" transform="translate(-207.589 -742.221)" fill="#fff"/>
    <path id="Tracé_17673" data-name="Tracé 17673" d="M573.016,826.712a.906.906,0,0,1,.234-.633.79.79,0,0,1,.609-.258h14.058a7.084,7.084,0,0,1,2.881.587,7.558,7.558,0,0,1,3.936,3.936,7.083,7.083,0,0,1,.587,2.881,7.31,7.31,0,0,1-1.594,4.591,7.618,7.618,0,0,1-1.781,1.618,6.889,6.889,0,0,1-2.2.96l6.653,9.09a.577.577,0,0,1,.093.327c0,.157-.093.235-.281.235h-2.951a1.32,1.32,0,0,1-.68-.212,1.936,1.936,0,0,1-.585-.538l-6.373-8.67h-5.482a.8.8,0,0,1-.844-.843v-1.453a.8.8,0,0,1,.844-.843h7.31a4.319,4.319,0,0,0,3.07-1.218,4.137,4.137,0,0,0,0-6,4.319,4.319,0,0,0-3.07-1.218H576.625v20.1a.788.788,0,0,1-.258.609.906.906,0,0,1-.633.234h-1.876a.8.8,0,0,1-.843-.843Z" transform="translate(-515.007 -742.221)" fill="#fff"/>
    <path id="Tracé_17674" data-name="Tracé 17674" d="M890.065,826.666a.813.813,0,0,1,.255-.587.851.851,0,0,1,.625-.258h1.9a.851.851,0,0,1,.625.258.819.819,0,0,1,.255.587v20.1h15.6a.88.88,0,0,1,.89.89v1.452a.88.88,0,0,1-.89.89H890.945a.845.845,0,0,1-.625-.258.862.862,0,0,1-.255-.632Z" transform="translate(-799.96 -742.221)" fill="#fff"/>
    <path id="Tracé_17675" data-name="Tracé 17675" d="M1068.014,826.571a.629.629,0,0,1-.188-.468c0-.187.124-.282.375-.282h3.234a1.055,1.055,0,0,1,.7.375l6.56,8.341a.321.321,0,0,1,.093.236.318.318,0,0,1-.093.234l-1.64,2.015a.35.35,0,0,1-.562,0Zm14.01,12.793v9.794q0,.842-.9.843h-1.852a.751.751,0,0,1-.855-.843v-9.465a1.334,1.334,0,0,1,.142-.61,2.833,2.833,0,0,1,.333-.514L1088.4,826.2a.814.814,0,0,1,.656-.375h3.139c.25,0,.375.095.375.282a1.451,1.451,0,0,1-.234.468Z" transform="translate(-959.725 -742.22)" fill="#fff"/>
    <path id="Tracé_17676" data-name="Tracé 17676" d="M1384.89,826.711a.9.9,0,0,1,.239-.633.8.8,0,0,1,.618-.258h1.427a1.251,1.251,0,0,1,.9.375l10.145,11.95,9.91-11.95a.959.959,0,0,1,.713-.375h2.521c.218,0,.327.095.327.282a1.037,1.037,0,0,1-.234.468l-12.465,14.9a.528.528,0,0,1-.187.187,1,1,0,0,1-.563.188,1.073,1.073,0,0,1-.609-.188.516.516,0,0,1-.187-.187l-9.465-10.966v18.65a.782.782,0,0,1-.262.609.927.927,0,0,1-.643.234h-1.332a.836.836,0,0,1-.618-.234.81.81,0,0,1-.239-.609Zm23.382,7.591a1.292,1.292,0,0,1,.328-.75l2.287-2.671q.333-.42.572-.421.187,0,.187.28v18.416a.78.78,0,0,1-.261.609.922.922,0,0,1-.641.234h-1.616a.838.838,0,0,1-.618-.234.815.815,0,0,1-.237-.609Z" transform="translate(-1244.691 -742.22)" fill="#fff"/>
    <path id="Tracé_17677" data-name="Tracé 17677" d="M662.357,257.575c-2.764.672-6.786-2.194-11.811-5.772-10.715-7.634-26.909-19.169-46.854-7.548a44.135,44.135,0,0,0-5.5,3.871c-.877.785-1.386.7-1.659.5-.7-.528-.521-2.358.408-4.26a57.937,57.937,0,0,1,8.894-13.812c5.539-6.412,14.963-14.262,28.377-15.218a27.155,27.155,0,0,1,23.587,9.746,37.746,37.746,0,0,1,7.385,14.454c1.245,4.646,1.545,9.233.8,12.273-.627,3.182-1.677,5.027-3.209,5.638a3.122,3.122,0,0,1-.421.133M613.5,240.007c15.523-3.772,28.23,5.281,37.154,11.639,4.985,3.551,8.974,6.394,11.652,5.743a2.8,2.8,0,0,0,.4-.128c1.466-.583,2.477-2.382,3.092-5.5,1.345-5.5-.739-17.79-8.146-26.562a26.961,26.961,0,0,0-23.426-9.678c-13.349.962-22.725,8.768-28.241,15.148a57.728,57.728,0,0,0-8.866,13.768l0,.006c-.964,1.973-.993,3.624-.466,4.022.3.232.8.059,1.414-.485a44.23,44.23,0,0,1,5.529-3.894,37.015,37.015,0,0,1,9.91-4.081" transform="translate(-535.762 -193.456)" fill="#fff"/>
    <path id="Tracé_17678" data-name="Tracé 17678" d="M644.355,236.969c-2.735.665-6.764-1.96-11.779-5.229-10.839-7.064-27.214-17.73-46.608-5.465a44.661,44.661,0,0,0-5.325,4.04c-.869.834-1.4.761-1.684.559-.716-.507-.6-2.34.267-4.263a57.977,57.977,0,0,1,8.4-13.987c5.3-6.553,14.408-14.684,27.683-16.194,11.885-1.355,19.479,3.975,23.757,8.686,7.957,8.762,10,20.666,8.87,25.953-.528,3.179-1.523,5.051-3.039,5.719a3.181,3.181,0,0,1-.54.182m-47.568-15.7c14.731-3.58,27.146,4.511,35.936,10.239,5.29,3.446,9.471,6.172,12.063,5.028,1.427-.628,2.37-2.433,2.883-5.522,1.16-5.446-1.255-17.409-8.8-25.722-4.235-4.663-11.754-9.941-23.526-8.6-13.192,1.506-22.237,9.582-27.5,16.1a57.606,57.606,0,0,0-8.359,13.921c-.887,1.966-.877,3.573-.361,3.938.29.2.765.014,1.34-.533a44.916,44.916,0,0,1,5.366-4.074,36.66,36.66,0,0,1,10.965-4.772" transform="translate(-519.927 -176.352)" fill="#fff"/>
    <path id="Tracé_17679" data-name="Tracé 17679" d="M626.309,215.857c-2.709.658-6.74-1.729-11.739-4.691-10.96-6.493-27.521-16.3-46.362-3.385a45.277,45.277,0,0,0-5.151,4.208c-.859.882-1.4.828-1.709.623-.736-.485-.682-2.317.125-4.259a57.957,57.957,0,0,1,7.9-14.161c5.06-6.695,13.854-15.1,26.985-17.178,11.814-1.858,19.543,3.125,23.945,7.633,8.115,8.307,10.487,19.93,9.536,25.17-.428,3.176-1.365,5.075-2.867,5.8a3.392,3.392,0,0,1-.668.238m-46.287-13.883c13.979-3.4,26.082,3.773,34.726,8.893,5.339,3.162,9.549,5.644,12.078,4.44,1.387-.673,2.262-2.487,2.674-5.545.977-5.381-1.762-17.012-9.442-24.873-4.345-4.448-11.975-9.368-23.642-7.532-24.938,3.919-34.523,30.847-34.618,31.118-.81,1.951-.763,3.514-.258,3.847.274.182.737-.031,1.268-.576a45.409,45.409,0,0,1,5.2-4.251,36.379,36.379,0,0,1,12.011-5.521" transform="translate(-504.055 -158.735)" fill="#fff"/>
    <path id="Tracé_17680" data-name="Tracé 17680" d="M608.142,194.271c-2.686.653-6.713-1.5-11.687-4.159-11.084-5.926-27.836-14.878-46.117-1.309a45.217,45.217,0,0,0-4.98,4.376c-.846.931-1.408.891-1.733.693-.768-.471-.778-2.262-.022-4.26.082-.262,8.828-27.473,33.7-32.493,11.75-2.366,19.619,2.272,24.15,6.58,7.481,7.112,11.115,18.2,10.19,24.385-.326,3.169-1.207,5.1-2.689,5.884a3.425,3.425,0,0,1-.808.305m-45-12.134c13.268-3.224,25.037,3.067,33.518,7.6,5.392,2.882,9.654,5.155,12.1,3.853,1.348-.716,2.154-2.536,2.467-5.562.764-5.111-1.908-16.272-10.061-24.024-4.458-4.238-12.2-8.8-23.773-6.469-.494.1-.985.208-1.467.325-23.5,5.711-31.83,31.623-31.913,31.889-.709,1.876-.653,3.456-.157,3.759.261.162.7-.066,1.2-.615a45.493,45.493,0,0,1,5.04-4.431,36.162,36.162,0,0,1,13.054-6.326" transform="translate(-488.068 -140.637)" fill="#fff"/>
    <path id="Tracé_17681" data-name="Tracé 17681" d="M590,172.2c-2.666.648-6.686-1.275-11.625-3.636-11.2-5.355-28.139-13.453-45.872.764a45.845,45.845,0,0,0-4.808,4.544c-.833.981-1.413.962-1.757.765-.79-.448-.862-2.238-.172-4.257.072-.26,7.911-27.578,32.5-33.649l.123-.03c11.628-2.826,19.6,1.456,24.252,5.555,7.608,6.708,11.543,17.47,10.827,23.593-.224,3.162-1.045,5.116-2.507,5.968a3.642,3.642,0,0,1-.962.383m-43.714-10.454c12.59-3.06,24,2.4,32.3,6.366,5.441,2.6,9.736,4.64,12.118,3.272,1.308-.762,2.048-2.588,2.259-5.582.59-5.04-2.391-15.879-10.659-23.168-4.559-4.022-12.385-8.22-23.8-5.445l-.121.029c-24.3,6-32.066,33.038-32.143,33.311-.694,2.03-.479,3.433-.059,3.673.241.132.662-.108,1.125-.656a46.683,46.683,0,0,1,4.876-4.609,36.082,36.082,0,0,1,14.1-7.192" transform="translate(-472.119 -122.044)" fill="#fff"/>
    <path id="Tracé_17682" data-name="Tracé 17682" d="M571.81,149.56c-2.65.644-6.654-1.05-11.549-3.119-11.326-4.788-28.443-12.026-45.631,2.835a46.582,46.582,0,0,0-4.637,4.71c-.818,1.037-1.419,1.034-1.78.842-.813-.426-.949-2.215-.323-4.251.062-.26,6.985-27.681,31.3-34.809,11.624-3.432,19.815.545,24.621,4.47,7.726,6.311,11.957,16.749,11.446,22.8-.12,3.15-.88,5.132-2.32,6.048a3.751,3.751,0,0,1-1.129.472m-42.4-8.843c11.942-2.9,22.977,1.764,31.082,5.19,5.492,2.324,9.831,4.159,12.141,2.692,1.267-.807,1.939-2.635,2.052-5.6.42-4.966-2.863-15.479-11.234-22.316-4.7-3.837-12.678-7.694-24.092-4.366-23.99,7.035-30.839,34.134-30.906,34.406-.608,1.986-.365,3.376.034,3.586.221.115.628-.145,1.057-.688a46.252,46.252,0,0,1,4.71-4.788,36.062,36.062,0,0,1,15.157-8.122" transform="translate(-456.122 -102.873)" fill="#fff"/>
    <path id="Tracé_17683" data-name="Tracé 17683" d="M553.476,126.528c-2.638.641-6.617-.828-11.457-2.613-11.449-4.224-28.753-10.606-45.391,4.9a47.1,47.1,0,0,0-4.466,4.878c-.8,1.1-1.423,1.1-1.8.922-.849-.409-1.046-2.156-.478-4.247.054-.258,6.06-27.774,30.1-35.967,11.6-3.964,19.936-.326,24.885,3.412,7.837,5.919,12.357,16.033,12.05,22.009-.016,3.138-.714,5.15-2.129,6.13a3.921,3.921,0,0,1-1.313.577m-41.072-7.31c11.323-2.752,21.953,1.171,29.843,4.08,5.548,2.048,9.92,3.656,12.169,2.112,1.227-.851,1.831-2.685,1.846-5.609.251-4.886-3.323-15.072-11.789-21.467-4.823-3.641-12.94-7.169-24.279-3.315-23.683,8.071-29.618,35.227-29.676,35.5-.533,1.966-.263,3.315.126,3.5.206.1.594-.185.989-.72a46.541,46.541,0,0,1,4.545-4.969,36.153,36.153,0,0,1,16.227-9.117" transform="translate(-439.998 -83.298)" fill="#fff"/>
    <path id="Tracé_17684" data-name="Tracé 17684" d="M535.139,103.031c-2.627.638-6.573-.609-11.345-2.118-11.571-3.659-29.061-9.188-45.154,6.965a47.562,47.562,0,0,0-4.3,5.046c-.785,1.15-1.427,1.181-1.824,1-.874-.385-1.136-2.131-.636-4.241.044-.257,5.132-27.873,28.9-37.128,11.567-4.5,20.072-1.21,25.173,2.347C533.9,80.439,538.7,90.228,538.59,96.121c.089,3.126-.544,5.163-1.933,6.211a4.086,4.086,0,0,1-1.518.7m-39.7-5.857c10.721-2.605,20.92.62,28.573,3.04,5.6,1.771,10.026,3.171,12.2,1.532,1.185-.893,1.722-2.732,1.64-5.621.1-5.722-4.576-15.222-12.318-20.618-4.956-3.454-13.224-6.652-24.486-2.265-23.386,9.107-28.4,36.318-28.447,36.592-.461,1.948-.166,3.256.213,3.422.154.067.5-.132.922-.748h0a47.465,47.465,0,0,1,4.38-5.146,36.36,36.36,0,0,1,17.324-10.188" transform="translate(-423.888 -63.248)" fill="#fff"/>
    <path id="Tracé_17685" data-name="Tracé 17685" d="M516.722,79.021c-2.618.636-6.521-.4-11.209-1.637-11.7-3.1-29.37-7.776-44.919,9.024a48.346,48.346,0,0,0-4.125,5.214c-.764,1.208-1.427,1.261-1.846,1.091-.9-.362-1.225-2.1-.793-4.234.035-.255,4.2-27.968,27.692-38.289,11.53-5.061,20.219-2.105,25.48,1.274,8.038,5.16,13.11,14.623,13.2,20.431.194,3.109-.372,5.173-1.732,6.288a4.293,4.293,0,0,1-1.746.838m-38.273-4.494c10.133-2.463,19.878.117,27.271,2.073,5.662,1.5,10.136,2.682,12.234.957,1.143-.94,1.612-2.781,1.436-5.632-.087-5.617-5.016-14.766-12.827-19.78-5.092-3.267-13.511-6.135-24.716-1.212-23.079,10.14-27.181,37.408-27.219,37.683-.4,1.994-.026,3.215.3,3.344.1.041.409-.065.858-.773A48.512,48.512,0,0,1,460,85.86c6-6.483,12.3-9.838,18.453-11.333" transform="translate(-407.715 -42.67)" fill="#fff"/>
    <path id="Tracé_17686" data-name="Tracé 17686" d="M437.232,71a1,1,0,0,1-.578-.032c-.923-.337-1.316-2.073-.955-4.224.027-.253,3.274-28.066,26.484-39.451,11.5-5.648,20.381-3.012,25.806.186,8.13,4.794,13.467,13.933,13.75,19.651.3,3.093-.2,5.182-1.528,6.367-2.373,2.11-7.085,1.1-13.049-.175-11.818-2.531-29.678-6.36-44.686,11.082a49.7,49.7,0,0,0-3.955,5.38c-.47.8-.914,1.124-1.288,1.216m32.009-45.362a32.655,32.655,0,0,0-6.667,2.453c-22.763,11.166-25.966,38.5-26,38.775-.331,1.973.065,3.152.378,3.266.108.044.415-.145.8-.8a49.292,49.292,0,0,1,4.048-5.506c15.351-17.846,33.521-13.951,45.546-11.375,5.721,1.226,10.242,2.2,12.272.379,1.1-.982,1.5-2.825,1.234-5.637-.272-5.51-5.439-14.309-13.315-18.952a23.992,23.992,0,0,0-18.3-2.607" transform="translate(-391.471 -21.557)" fill="#fff"/>
    <path id="Tracé_17687" data-name="Tracé 17687" d="M419.141,48.8a1.026,1.026,0,0,1-.569-.025c-.963-.313-1.413-2-1.12-4.2.067-.8,2.567-28.294,25.276-40.627,11.465-6.233,20.55-3.936,26.148-.914,8.328,4.5,13.8,13.131,14.283,18.885.405,3.073-.026,5.186-1.319,6.438-2.316,2.247-7.094,1.454-13.142.457-11.94-1.97-29.987-4.948-44.454,13.14a50.082,50.082,0,0,0-3.787,5.545c-.466.858-.925,1.2-1.316,1.3M451.013,1.714A32.485,32.485,0,0,0,443.188,4.8c-22.458,12.2-24.754,39.592-24.774,39.868l0,.028c-.272,2.03.219,3.087.461,3.166.05.013.336-.08.736-.819a49.831,49.831,0,0,1,3.88-5.684c14.824-18.533,33.2-15.5,45.368-13.494,5.78.953,10.345,1.705,12.313-.2,1.058-1.024,1.4-2.87,1.031-5.642-.452-5.4-5.848-13.855-13.782-18.138a23.953,23.953,0,0,0-17.4-2.171" transform="translate(-375.112 -0.002)" fill="#fff"/>
  </g>
</svg>
