<?xml version="1.0" encoding="UTF-8"?><svg id="Calque_2" xmlns="http://www.w3.org/2000/svg" viewBox="0 0 114.05 79.83"><defs><style>.cls-1{fill:#fff;}</style></defs><g id="SVGRoot"><path class="cls-1" d="M111.67,12.46c-1.32-4.92-5.16-8.76-10.08-10.08C92.69,0,57.01,0,57.01,0c0,0-35.65,0-44.55,2.38C7.55,3.7,3.7,7.55,2.38,12.46,0,21.36,0,39.92,0,39.92c0,0,0,18.56,2.38,27.45,1.32,4.92,5.16,8.76,10.08,10.08,8.9,2.38,44.56,2.38,44.56,2.38,0,0,35.66,0,44.56-2.38,4.92-1.32,8.76-5.16,10.08-10.08,2.38-8.9,2.38-27.45,2.38-27.45,0,0,0-18.56-2.38-27.45ZM45.62,57.03V22.81l29.63,17.11-29.63,17.11Z"/></g></svg>