<svg id="Groupe_44" data-name="Groupe 44" xmlns="http://www.w3.org/2000/svg" xmlns:xlink="http://www.w3.org/1999/xlink" width="16.595" height="16.594" viewBox="0 0 16.595 16.594">
  <defs>
    <clipPath id="clip-path">
      <rect id="Rectangle_28" data-name="Rectangle 28" width="16.595" height="16.595" fill="#fff"/>
    </clipPath>
  </defs>
  <g id="Groupe_43" data-name="Groupe 43" transform="translate(0 0)" clip-path="url(#clip-path)">
    <path id="Tracé_17350" data-name="Tracé 17350" d="M8.357,1.506c2.231,0,2.5.008,3.377.049a4.627,4.627,0,0,1,1.552.288,2.589,2.589,0,0,1,.961.625,2.589,2.589,0,0,1,.625.961A4.623,4.623,0,0,1,15.16,4.98c.04.881.049,1.146.049,3.377s-.008,2.5-.049,3.377a4.624,4.624,0,0,1-.288,1.552,2.767,2.767,0,0,1-1.586,1.586,4.624,4.624,0,0,1-1.552.288c-.881.04-1.145.049-3.377.049s-2.5-.009-3.377-.049a4.625,4.625,0,0,1-1.552-.288,2.589,2.589,0,0,1-.961-.625,2.59,2.59,0,0,1-.625-.961,4.624,4.624,0,0,1-.288-1.552c-.04-.881-.049-1.146-.049-3.377s.008-2.5.049-3.377a4.624,4.624,0,0,1,.288-1.552,2.59,2.59,0,0,1,.625-.961,2.589,2.589,0,0,1,.961-.625A4.627,4.627,0,0,1,4.98,1.554c.881-.04,1.146-.049,3.377-.049M8.357,0C6.087,0,5.8.01,4.911.05A6.134,6.134,0,0,0,2.883.439,4.1,4.1,0,0,0,1.4,1.4a4.1,4.1,0,0,0-.964,1.48A6.135,6.135,0,0,0,.05,4.911C.01,5.8,0,6.087,0,8.357S.01,10.911.05,11.8a6.135,6.135,0,0,0,.388,2.029,4.1,4.1,0,0,0,.964,1.48,4.1,4.1,0,0,0,1.48.964,6.135,6.135,0,0,0,2.029.388c.891.041,1.176.05,3.446.05s2.554-.01,3.446-.05a6.136,6.136,0,0,0,2.029-.388,4.274,4.274,0,0,0,2.444-2.444,6.135,6.135,0,0,0,.388-2.029c.041-.891.05-1.176.05-3.446s-.01-2.554-.05-3.446a6.135,6.135,0,0,0-.388-2.029,4.1,4.1,0,0,0-.964-1.48,4.1,4.1,0,0,0-1.48-.964A6.134,6.134,0,0,0,11.8.05C10.911.01,10.627,0,8.357,0m0,4.066a4.292,4.292,0,1,0,4.291,4.292A4.292,4.292,0,0,0,8.357,4.066m0,7.077a2.786,2.786,0,1,1,2.786-2.786,2.786,2.786,0,0,1-2.786,2.786M13.821,3.9a1,1,0,1,1-1-1,1,1,0,0,1,1,1" transform="translate(-0.025 -0.095)" fill="#fff"/>
  </g>
</svg>
